<?xml version="1.0" encoding="UTF-8"?>
<svg width="1201px" height="12px" viewBox="0 0 1201 12" version="1.1" xmlns="http://www.w3.org/2000/svg" xmlns:xlink="http://www.w3.org/1999/xlink">
    <title>Combined Shape</title>
    <g id="Page-1" stroke="none" stroke-width="1" fill="none" fill-rule="evenodd">
        <path d="M337.436698,0.650869862 C343.400729,0.824877866 349.379996,1.24657199 355.319299,1.66382895 C361.568671,2.09739686 367.827537,2.55776253 374.066679,3.00258966 C380.266005,3.43536824 386.456351,3.81470918 392.656412,4.20943078 C399.066449,4.61888466 405.455731,5.0660798 411.855096,5.5096271 C423.744006,6.32907609 435.646603,6.95839804 447.571059,7.49289326 C453.393193,7.7560279 459.216063,7.98110555 465.061895,8.054271 C471.237962,8.13645174 477.404976,8.16900054 483.573461,8.12543537 C489.952291,8.077574 496.321037,8.03336046 502.689636,7.99675832 C508.897939,7.96524171 515.108154,7.83477695 521.298645,7.68877366 C533.078625,7.4101293 544.905634,7.28830789 556.677885,6.89152901 C568.690803,6.47570474 580.648079,5.83059137 592.625079,5.20101652 C598.428149,4.89662852 604.23085,4.61126901 610.043635,4.32226166 C615.625836,4.04865188 621.160051,3.66769322 626.694634,3.26770606 C632.048755,2.88010011 637.422673,2.50422698 642.795855,2.16641083 C648.990908,1.78445425 655.204435,1.48273307 661.428045,1.17736405 C663.362279,1.08224422 665.316163,1.0064686 667.259965,0.93434082 C679.35178,0.580670647 691.527939,0.525265735 703.720806,0.641432976 C716.494363,0.75914507 729.286099,0.972315352 742.086078,1.27698026 C767.425867,1.87839985 792.664242,3.582209 817.883408,5.24383974 C829.542985,6.01398943 841.265636,6.62905269 852.990418,6.61601787 C865.436094,6.60293233 877.864253,6.46013732 890.300877,6.39741983 C903.128012,6.33324774 915.973548,6.35311675 928.819009,6.37679145 C934.836178,6.39174946 940.883079,6.42240386 946.892225,6.33445015 C953.462188,6.24011416 960.013237,6.08837697 966.574148,5.94440903 C972.333722,5.81825738 978.082992,5.70717066 983.85,5.71437631 C989.88726,5.72584435 995.901632,5.8854189 1001.92447,6.12507097 C1014.80084,6.62128372 1027.67553,7.20502753 1040.54167,7.71249951 C1046.54456,7.94803015 1052.52721,8.19466215 1058.54144,8.36184809 C1064.86595,8.53392789 1071.15183,8.63306795 1077.45964,8.63357559 C1083.48703,8.63727437 1089.52731,8.49270879 1095.50864,8.29011053 C1102.35157,8.0592261 1109.18487,7.80915531 1116.01817,7.55908452 C1116.03819,7.55940026 1116.06822,7.55987386 1116.08823,7.56018959 C1115.56723,7.57862043 1115.0463,7.59324557 1114.52523,7.6154821 C1129.14308,7.11130933 1143.76925,6.69482549 1158.45128,6.49621365 C1165.26147,6.40566646 1172.07173,6.31131356 1178.88199,6.21696067 C1182.32727,6.16470714 1185.7724,6.12006501 1189.21753,6.07542288 C1190.91,6.05643391 1192.6029,6.01461075 1194.28565,5.98024113 C1195.60784,5.95160541 1196.92106,5.86953204 1198.2342,5.79126438 C1199.14197,5.74225346 1200.01992,5.66242516 1200.89808,5.5745117 C1200.93106,5.68028028 1200.94642,5.7876056 1200.94453,5.89587078 C1200.92712,6.89299643 1199.44335,7.74137263 1197.39552,7.95272834 C1195.95712,8.09755422 1194.56825,8.25838848 1193.1012,8.33804612 C1191.79369,8.41641194 1190.4861,8.49858347 1189.16957,8.52731809 C1187.49403,8.56181359 1185.80838,8.60376337 1184.12317,8.62287896 C1180.69281,8.66777883 1177.26244,8.7126787 1173.83193,8.76518997 C1167.05085,8.86005234 1160.26978,8.95491472 1153.48878,9.0459714 C1138.86968,9.24568163 1124.30618,9.66325939 1109.75096,10.1685253 C1110.2698,10.1462498 1110.78849,10.1315857 1111.30726,10.1131159 C1111.28733,10.1128017 1111.25743,10.1123304 1111.2375,10.1120161 C1104.43348,10.3625979 1097.62946,10.6131797 1090.81583,10.8445759 C1084.86014,11.0476215 1078.84574,11.1926388 1072.84418,11.1893911 C1066.56342,11.1893555 1060.3045,11.0906859 1054.00711,10.9190796 C1048.01868,10.7523439 1042.06169,10.5061599 1036.08455,10.2710788 C1023.2736,9.7645702 1010.45416,9.18179056 997.633021,8.68654198 C991.636023,8.44734091 985.647446,8.28821663 979.636068,8.27720036 C973.893784,8.27042626 968.169152,8.38194305 962.43426,8.50852553 C955.901465,8.65298422 949.378489,8.80521142 942.836684,8.90003891 C936.853293,8.98844217 930.832316,8.95824029 924.840944,8.94373256 C912.050552,8.92101911 899.260087,8.90211135 886.487936,8.96724321 C874.104623,9.03089123 861.729732,9.17461604 849.337409,9.18863287 C837.66289,9.20254503 825.99054,8.58835977 814.381005,7.81908356 C789.270077,6.15934213 764.140026,4.45742377 738.908912,3.85790112 C726.163829,3.55419443 713.426947,3.34198162 700.708159,3.22522552 C688.567571,3.10997081 676.443606,3.16628678 664.403602,3.52086131 C662.468128,3.59313445 660.522614,3.66905618 658.596665,3.76432063 C652.399712,4.07015495 646.2128,4.3723407 640.044276,4.75476035 C634.694103,5.09297812 629.343195,5.46925289 624.011999,5.85725898 C618.501112,6.25765976 612.990594,6.63903205 607.432302,6.91305918 C601.644415,7.20250112 595.866568,7.48829447 590.088354,7.79311632 C578.162651,8.42358657 566.256587,9.06959385 554.295138,9.4863165 C542.573324,9.88397577 530.797008,10.006682 519.067508,10.2862075 C512.903544,10.4326738 506.719942,10.5636031 500.538252,10.5955843 C494.196952,10.6326629 487.855505,10.677353 481.504018,10.7256916 C475.361973,10.7697183 469.221399,10.737631 463.071815,10.6559125 C457.251049,10.5831846 451.453159,10.358543 445.656004,10.0958443 C433.782708,9.56224212 421.931183,8.93381166 410.093302,8.11525338 C403.721404,7.67218551 397.359546,7.22546907 390.977019,6.81649538 C384.803567,6.42223824 378.639787,6.04336102 372.467071,5.61104689 C366.254709,5.16668721 360.022709,4.70679049 353.80016,4.27369078 C347.88635,3.8568788 341.932748,3.43563265 335.994297,3.26207116 C325.142009,2.94505928 314.295748,3.03262112 303.474371,3.14613054 L296.984681,3.21432089 C285.078948,3.32737322 273.182446,3.47863966 261.270277,3.40886133 C255.129777,3.37296835 248.99939,3.32962109 242.867826,3.34716501 C237.523905,3.36189839 232.188038,3.47573705 226.851362,3.6314384 C217.672387,3.99685427 208.579211,4.56538622 199.456062,5.13725252 C190.382967,5.69848732 181.309871,6.25972211 172.189076,6.70980605 C162.489345,7.19644558 152.742356,7.54910007 142.940203,7.66105283 C140.48721,7.68709889 138.044477,7.69807927 135.582694,7.66307704 C133.459623,7.64102818 131.308786,7.50814271 129.198182,7.35685721 C125.325505,7.07500811 121.474379,6.70974788 117.612993,6.35955332 L117.71251,6.36873588 C111.412068,5.83923677 105.088531,5.47306847 98.7443258,5.14464292 C92.3902275,4.81225455 86.038115,4.37711232 79.6934682,4.07152097 C76.1575171,3.90537911 72.6409839,3.76619139 69.0839231,3.66062648 C65.5766209,3.55965286 62.0377277,3.54573896 58.5386266,3.53625923 C52.108732,3.51483835 45.7156875,3.65007958 39.3509241,3.86951754 C39.5004941,3.8680686 39.6601042,3.86297108 39.8197143,3.85787355 C33.6142667,4.08743679 27.428605,4.32492565 21.2315793,4.63456567 C15.2243571,4.92435673 9.09856753,5.1589826 3.26301827,5.85120013 C2.79327193,5.91231821 2.27538511,5.88511962 1.79957058,5.74437854 C0.957057443,5.49126456 0.707933205,4.96960448 1.1838579,4.58880771 C1.75080444,4.14092241 3.26732058,4.08107885 4.22623126,3.98579683 C5.69438627,3.8490537 7.14275551,3.70438494 8.61091052,3.56764181 C11.2476391,3.31988763 13.8938928,3.09512476 16.5697516,2.88605603 C21.8814563,2.47490151 27.2018035,2.13240668 32.5898564,1.89757124 C38.0777942,1.65288988 43.5652907,1.43104271 49.0907406,1.30877217 C54.795807,1.17791265 60.5676963,1.2003809 66.2983224,1.29452895 C77.1515486,1.47704662 87.9543176,2.20695645 98.7912519,2.71660709 C103.337981,2.93324295 107.884711,3.14987882 112.429929,3.30053226 C114.360716,3.43360279 116.289106,3.5798007 118.215348,3.74113445 L118.191683,3.73801057 L121.022497,3.99609431 C123.928659,4.25999157 126.833516,4.51851486 129.750545,4.73012024 C131.870247,4.88156456 134.030355,5.01461184 136.162569,5.03682028 C138.634953,5.07200757 141.088202,5.06121074 143.551754,5.03534899 C153.396102,4.92413273 163.185029,4.57221028 172.926484,4.08629906 C182.086515,3.63689997 191.198632,3.0763463 200.310749,2.51579263 C209.473134,1.9446112 218.605417,1.37676186 227.823884,1.01203534 C233.183525,0.85673484 238.542357,0.743297024 243.909284,0.72896523 C250.067246,0.711882084 256.22403,0.75569011 262.39097,0.792044606 C274.354431,0.862718241 286.302142,0.712345645 298.259125,0.600187897 C311.287773,0.470670565 324.357855,0.26947643 337.436698,0.650869862 Z" id="Combined-Shape" fill="#000000" fill-rule="nonzero"></path>
    </g>
</svg>