<?xml version="1.0" encoding="UTF-8"?>
<svg width="1190px" height="20px" viewBox="0 0 1190 20" version="1.1" xmlns="http://www.w3.org/2000/svg" xmlns:xlink="http://www.w3.org/1999/xlink">
    <title>Artboard</title>
    <g id="Artboard" stroke="none" stroke-width="1" fill="none" fill-rule="evenodd">
        <path d="M299.721511,2.11323476 C309.46506,2.01915449 319.227238,1.97676047 328.994297,2.26207116 C334.190441,2.41393746 339.398186,2.75543733 344.580723,3.11767085 L353.024782,3.7141549 L365.467071,4.61104689 C371.639787,5.04336102 377.803567,5.42223824 383.977019,5.81649538 C390.359546,6.22546907 396.721404,6.67218551 403.093302,7.11525338 C414.931183,7.93381166 426.782708,8.56224212 438.656004,9.09584435 C444.453159,9.35854297 450.251049,9.58318461 456.071815,9.65591253 C462.221399,9.73763101 468.361973,9.76971829 474.504018,9.7256916 C480.855505,9.67735297 487.196952,9.63266292 493.538252,9.59558427 C499.719942,9.56360314 505.903544,9.43267384 512.067508,9.28620751 C523.797008,9.00668202 535.573324,8.88397577 547.295138,8.4863165 C554.415048,8.2382673 561.515335,7.90898064 568.611821,7.55008887 L572.869382,7.33161425 L585.977479,6.64218612 L585.977479,6.64218612 L588.866831,6.49379741 L600.432302,5.91305918 C604.878935,5.69383748 609.294994,5.40591487 613.705126,5.0945095 L621.013772,4.56886537 C625.018603,4.28349407 629.031647,4.00842368 633.044276,3.75476035 C635.511686,3.60179249 637.982038,3.46166205 640.454797,3.32900056 L644.165675,3.13493898 L651.596665,2.76432063 C653.522614,2.66905618 655.468128,2.59313445 657.403602,2.52086131 C669.443606,2.16628678 681.567571,2.10997081 693.708159,2.22522552 C706.426947,2.34198162 719.163829,2.55419443 731.908912,2.85790112 C751.533112,3.32419651 771.096175,4.45737326 790.636654,5.71890131 L794.823568,5.99099705 L807.381005,6.81908356 C818.99054,7.58835977 830.66289,8.20254503 842.337409,8.18863287 C845.642029,8.18489505 848.945408,8.17193355 852.248039,8.15372651 L857.201484,8.12297907 L872.058752,8.01336296 L879.487936,7.96724321 C892.260087,7.90211135 905.050552,7.92101911 917.840944,7.94373256 C923.832316,7.95824029 929.853293,7.98844217 935.836684,7.90003891 C942.378489,7.80521142 948.901465,7.65298422 955.43426,7.50852553 C961.169152,7.38194305 966.893784,7.27042626 972.636068,7.27720036 C978.647446,7.28821663 984.636023,7.44734091 990.633021,7.68654198 L995.440855,7.87604329 L995.440855,7.87604329 L1000.24845,8.07183108 L1019.47486,8.87945592 L1029.08455,9.27107875 C1035.06169,9.5061599 1041.01868,9.7523439 1047.00711,9.91907958 C1053.3045,10.0906859 1059.56342,10.1893555 1065.84418,10.1893911 C1071.84574,10.1926388 1077.86014,10.0476215 1083.81583,9.84457589 C1088.35825,9.69031177 1092.8964,9.52752071 1097.43312,9.36188733 L1104.2375,9.11201612 L1104.30726,9.11311594 C1103.78849,9.13158574 1103.2698,9.14624984 1102.75096,9.16852534 C1117.30618,8.66325939 1131.86968,8.24568163 1146.48878,8.0459714 C1153.26978,7.95491472 1160.05085,7.86005234 1166.83193,7.76518997 L1171.9776,7.69118019 L1171.9776,7.69118019 L1177.96576,7.61155854 L1177.96576,7.61155854 L1178.80814,7.59727377 L1182.16957,7.52731809 C1183.4861,7.49858347 1184.79369,7.41641194 1186.1012,7.33804612 C1186.68802,7.30618306 1187.26233,7.26133175 1187.83231,7.20971201 L1188.68504,7.12798358 L1190.39552,6.95272834 C1190.60355,6.9312574 1190.80576,6.90321249 1191.00121,6.8691055 L1191.00121,20 L-3.00155052,20 L-3.00155052,4.76651557 C0.628597787,4.36085289 4.36358001,4.12259142 8.10616962,3.92978246 L9.71031889,3.84957732 L18.8777045,3.41486047 C21.9743498,3.2760712 25.070101,3.15130563 28.1688517,3.03253556 L32.5815542,2.86506377 L32.3509241,2.86951754 C38.7156875,2.65007958 45.108732,2.51483835 51.5386266,2.53625923 C55.0377277,2.54573896 58.5766209,2.55965286 62.0839231,2.66062648 C65.6409839,2.76619139 69.1575171,2.90537911 72.6934682,3.07152097 C79.038115,3.37711232 85.3902275,3.81225455 91.7443258,4.14464292 C97.1822162,4.42615053 102.604922,4.73538751 108.010914,5.15144139 L110.71251,5.36873588 L113.507606,5.62348535 C116.401289,5.8871648 119.293674,6.14547039 122.198182,6.35685721 C124.308786,6.50814271 126.459623,6.64102818 128.582694,6.66307704 C131.044477,6.69807927 133.48721,6.68709889 135.940203,6.66105283 C145.742356,6.54910007 155.489345,6.19644558 165.189076,5.70980605 C174.309871,5.25972211 183.382967,4.69848732 192.456062,4.13725252 C201.579211,3.56538622 210.672387,2.99685427 219.851362,2.6314384 C225.188038,2.47573705 230.523905,2.36189839 235.867826,2.34716501 C241.99939,2.32962109 248.129777,2.37296835 254.270277,2.40886133 C261.077231,2.44873466 267.879069,2.41643011 274.680437,2.36032251 L279.781447,2.31453459 L289.984681,2.21432089 L299.721511,2.11323476 Z" id="Shape" fill="#F8E6C2"></path>
        <path d="M333.436698,0.650869862 C337.909722,0.781375865 342.391315,1.05120531 346.858191,1.35399369 L351.319299,1.66382895 L351.319299,1.66382895 L357.570753,2.10476143 L357.570753,2.10476143 L370.066679,3.00258966 L370.066679,3.00258966 C376.266005,3.43536824 382.456351,3.81470918 388.656412,4.20943078 C395.066449,4.61888466 401.455731,5.0660798 407.855096,5.5096271 C419.744006,6.32907609 431.646603,6.95839804 443.571059,7.49289326 C449.393193,7.7560279 455.216063,7.98110555 461.061895,8.054271 C467.237962,8.13645174 473.404976,8.16900054 479.573461,8.12543537 C485.952291,8.077574 492.321037,8.03336046 498.689636,7.99675832 C504.897939,7.96524171 511.108154,7.83477695 517.298645,7.68877366 L522.349791,7.57769722 L522.349791,7.57769722 L537.519973,7.28415465 C542.577327,7.1811228 547.632635,7.0615771 552.677885,6.89152901 C564.690803,6.47570474 576.648079,5.83059137 588.625079,5.20101652 C594.428149,4.89662852 600.23085,4.61126901 606.043635,4.32226166 C610.509396,4.10337384 614.944446,3.81578273 619.373542,3.50470837 L622.694634,3.26770606 C628.048755,2.88010011 633.422673,2.50422698 638.795855,2.16641083 C644.990908,1.78445425 651.204435,1.48273307 657.428045,1.17736405 C659.362279,1.08224422 661.316163,1.0064686 663.259965,0.93434082 C675.35178,0.580670647 687.527939,0.525265735 699.720806,0.641432976 C712.494363,0.75914507 725.286099,0.972315352 738.086078,1.27698026 C759.202569,1.77816325 780.248634,3.04489455 801.271844,4.41480843 L813.883408,5.24383974 C825.542985,6.01398943 837.265636,6.62905269 848.990418,6.61601787 C853.968688,6.61078365 858.944156,6.58479592 863.918484,6.55148104 L878.83971,6.44298133 C881.326566,6.42570993 883.813552,6.40996333 886.300877,6.39741983 C899.128012,6.33324774 911.973548,6.35311675 924.819009,6.37679145 C930.836178,6.39174946 936.883079,6.42240386 942.892225,6.33445015 C946.177207,6.28728215 949.45746,6.22576386 952.736581,6.15804157 L962.574148,5.94440903 L962.574148,5.94440903 C968.333722,5.81825738 974.082992,5.70717066 979.85,5.71437631 C985.88726,5.72584435 991.901632,5.8854189 997.924468,6.12507097 C1010.80084,6.62128372 1023.67553,7.20502753 1036.54167,7.71249951 C1042.54456,7.94803015 1048.52721,8.19466215 1054.54144,8.36184809 C1060.86595,8.53392789 1067.15183,8.63306795 1073.45964,8.63357559 C1079.48703,8.63727437 1085.52731,8.49270879 1091.50864,8.29011053 L1098.34872,8.05354126 L1098.34872,8.05354126 L1112.01817,7.55908452 C1112.03819,7.55940026 1112.06822,7.55987386 1112.08823,7.56018959 C1111.56723,7.57862043 1111.0463,7.59324557 1110.52523,7.6154821 C1125.14308,7.11130933 1139.76925,6.69482549 1154.45128,6.49621365 L1164.66661,6.3580143 L1164.66661,6.3580143 L1174.88199,6.21696067 C1178.32727,6.16470714 1181.7724,6.12006501 1185.21753,6.07542288 L1186.90975,6.04994428 L1186.90975,6.04994428 L1190.28565,5.98024113 L1190.28565,5.98024113 C1191.60784,5.95160541 1192.92106,5.86953204 1194.2342,5.79126438 C1195.14197,5.74225346 1196.01992,5.66242516 1196.89808,5.5745117 C1196.93106,5.68028028 1196.94468,5.7876056 1196.94468,5.89587078 C1196.92712,6.89299643 1195.44335,7.74137263 1193.39552,7.95272834 L1191.68504,8.12798358 C1190.83352,8.21323337 1189.98143,8.29025153 1189.1012,8.33804612 C1187.79369,8.41641194 1186.4861,8.49858347 1185.16957,8.52731809 L1181.80814,8.59727377 C1181.24669,8.6075981 1180.68491,8.61650709 1180.12317,8.62287896 C1176.69281,8.66777883 1173.26244,8.7126787 1169.83193,8.76518997 C1163.05085,8.86005234 1156.26978,8.95491472 1149.48878,9.0459714 C1134.86968,9.24568163 1120.30618,9.66325939 1105.75096,10.1685253 C1106.2698,10.1462498 1106.78849,10.1315857 1107.30726,10.1131159 L1107.2375,10.1120161 L1107.2375,10.1120161 C1100.43348,10.3625979 1093.62946,10.6131797 1086.81583,10.8445759 C1080.86014,11.0476215 1074.84574,11.1926388 1068.84418,11.1894446 C1062.56342,11.1894446 1056.3045,11.0906859 1050.00711,10.9190796 C1044.01868,10.7523439 1038.06169,10.5061599 1032.08455,10.2710788 L1022.47486,9.87945592 L1022.47486,9.87945592 L1003.24845,9.07183108 C1000.04348,8.93963696 996.838305,8.81035413 993.633021,8.68654198 C987.636023,8.44734091 981.647446,8.28821663 975.636068,8.27720036 C969.893784,8.27042626 964.169152,8.38194305 958.43426,8.50852553 C951.901465,8.65298422 945.378489,8.80521142 938.836684,8.90003891 C932.853293,8.98844217 926.832316,8.95824029 920.840944,8.94373256 C908.050552,8.92101911 895.260087,8.90211135 882.487936,8.96724321 L875.058752,9.01336296 L875.058752,9.01336296 L860.201484,9.12297907 C855.248478,9.15666613 850.294338,9.18302614 845.337409,9.18863287 C833.66289,9.20254503 821.99054,8.58835977 810.381005,7.81908356 L797.823568,6.99099705 C776.890586,5.62265811 755.93484,4.35750333 734.908912,3.85790112 C722.163829,3.55419443 709.426947,3.34198162 696.708159,3.22522552 C684.567571,3.10997081 672.443606,3.16628678 660.403602,3.52086131 C658.468128,3.59313445 656.522614,3.66905618 654.596665,3.76432063 L647.165675,4.13493898 C643.453125,4.32474097 639.745391,4.52530856 636.044276,4.75476035 C632.031647,5.00842368 628.018603,5.28349407 624.013772,5.56886537 L620.011999,5.85725898 C614.501112,6.25765976 608.990594,6.63903205 603.432302,6.91305918 L591.866831,7.49379741 C589.940456,7.59201603 588.014425,7.69150904 586.088354,7.79311632 L575.869382,8.33161425 C567.354665,8.77401647 558.83903,9.18865746 550.295138,9.4863165 C538.573324,9.88397577 526.797008,10.006682 515.067508,10.2862075 C508.903544,10.4326738 502.719942,10.5636031 496.538252,10.5955843 C490.196952,10.6326629 483.855505,10.677353 477.504018,10.7256916 C471.361973,10.7697183 465.221399,10.737631 459.071815,10.6559125 C453.251049,10.5831846 447.453159,10.358543 441.656004,10.0958443 C429.782708,9.56224212 417.931183,8.93381166 406.093302,8.11525338 C399.721404,7.67218551 393.359546,7.22546907 386.977019,6.81649538 C380.803567,6.42223824 374.639787,6.04336102 368.467071,5.61104689 L356.024782,4.7141549 L356.024782,4.7141549 L349.80016,4.27369078 C343.88635,3.8568788 337.932748,3.43563265 331.994297,3.26207116 C322.227238,2.97676047 312.46506,3.01915449 302.721511,3.11323476 L292.984681,3.21432089 L282.781447,3.31453459 C274.279668,3.39576671 265.778969,3.45870299 257.270277,3.40886133 C251.129777,3.37296835 244.99939,3.32962109 238.867826,3.34716501 C233.523905,3.36189839 228.188038,3.47573705 222.851362,3.6314384 C213.672387,3.99685427 204.579211,4.56538622 195.456062,5.13725252 C186.382967,5.69848732 177.309871,6.25972211 168.189076,6.70980605 C158.489345,7.19644558 148.742356,7.54910007 138.940203,7.66105283 C136.48721,7.68709889 134.044477,7.69807927 131.582694,7.66307704 C129.459623,7.64102818 127.308786,7.50814271 125.198182,7.35685721 C122.293674,7.14547039 119.401289,6.8871648 116.507606,6.62348535 L113.71251,6.36873588 C107.412068,5.83923677 101.088531,5.47306847 94.7443258,5.14464292 C88.3902275,4.81225455 82.038115,4.37711232 75.6934682,4.07152097 C72.1575171,3.90537911 68.6409839,3.76619139 65.0839231,3.66062648 C61.5766209,3.55965286 58.0377277,3.54573896 54.5386266,3.53625923 C48.108732,3.51483835 41.7156875,3.65007958 35.3509241,3.86951754 L35.5815542,3.86506377 L35.5815542,3.86506377 L35.8197143,3.85787355 C31.1656286,4.03004598 26.5226724,4.20667657 21.8777045,4.41486047 L12.7103189,4.84957732 C8.17960235,5.07026914 3.63968021,5.33203698 -0.736981729,5.85120013 C-1.20672807,5.91231821 -1.72461489,5.88511962 -2.20042942,5.74437854 C-3.04294256,5.49126456 -3.2920668,4.96960448 -2.8161421,4.58880771 C-2.43817774,4.29021751 -1.63818245,4.1640903 -0.862726609,4.08495048 L0.226231264,3.98579683 L0.226231264,3.98579683 L4.61091052,3.56764181 L4.61091052,3.56764181 C7.24763908,3.31988763 9.89389278,3.09512476 12.5697516,2.88605603 C17.8814563,2.47490151 23.2018035,2.13240668 28.5898564,1.89757124 C34.0777942,1.65288988 39.5652907,1.43104271 45.0907406,1.30877217 C50.795807,1.17791265 56.5676963,1.2003809 62.2983224,1.29452895 C69.2049209,1.41067656 76.0910863,1.74849537 82.9786259,2.11016089 L88.8830765,2.42138593 C90.8516779,2.52399829 92.8209002,2.62394334 94.7912519,2.71660709 C99.3379812,2.93324295 103.884711,3.14987882 108.429929,3.30053226 C109.717121,3.38924595 111.003247,3.48379403 112.288381,3.5847716 L114.191683,3.73801057 L117.022497,3.99609431 C119.928659,4.25999157 122.833516,4.51851486 125.750545,4.73012024 C127.870247,4.88156456 130.030355,5.01461184 132.162569,5.03682028 C134.634953,5.07200757 137.088202,5.06121074 139.551754,5.03534899 C149.396102,4.92413273 159.185029,4.57221028 168.926484,4.08629906 C178.086515,3.63689997 187.198632,3.0763463 196.310749,2.51579263 C205.473134,1.9446112 214.605417,1.37676186 223.823884,1.01203534 C229.183525,0.85673484 234.542357,0.743297024 239.909284,0.72896523 C246.067246,0.711882084 252.22403,0.75569011 258.39097,0.792044606 C266.9363,0.842525774 275.473593,0.780228252 284.01197,0.699634942 L294.259125,0.600187897 L294.259125,0.600187897 L304.037869,0.499833378 C313.823361,0.40648522 323.627566,0.364824788 333.436698,0.650869862 Z" id="Path-Copy" fill="#000000" fill-rule="nonzero"></path>
    </g>
</svg>